<?xml version="1.0" encoding="UTF-8"?>
<svg id="a" data-name="Layer 1" xmlns="http://www.w3.org/2000/svg" width="17in" height="17in" viewBox="0 0 1224 1224">
  <g id="b" data-name="&amp;lt;Radial Repeat&amp;gt;">
    <path d="M365,666.074l178.576-47.24c9.403-2.484,19.379.982,25.2,8.758,7.896,10.548,5.744,25.509-4.804,33.404l-201.672,150.961-19.593-26.175,156.13-116.871c1.033-.773,1.234-2.239.461-3.272-.568-.759-1.544-1.097-2.471-.863l-121.961,32.269-9.867-30.972Z" fill="#fff" stroke-width="0"/>
  </g>
  <g id="c" data-name="&amp;lt;Radial Repeat&amp;gt;">
    <path d="M436.436,422.106l130.199,131.031c6.853,6.901,8.84,17.274,5.016,26.203-5.187,12.112-19.219,17.729-31.331,12.542l-231.573-99.172,12.871-30.055,179.278,76.777c1.186.508,2.556-.051,3.064-1.237.373-.871.178-1.886-.488-2.572l-88.926-89.487,21.89-24.031Z" fill="#fff" stroke-width="0"/>
  </g>
  <g id="d" data-name="&amp;lt;Radial Repeat&amp;gt;">
    <path d="M683.436,361.989l-48.377,178.271c-2.55,9.385-10.54,16.292-20.185,17.445-13.082,1.564-24.963-7.78-26.527-20.862l-29.9-250.134,32.464-3.881,23.148,193.648c.153,1.281,1.322,2.188,2.603,2.035.941-.112,1.722-.789,1.983-1.709l33.035-121.756,31.756,6.941Z" fill="#fff" stroke-width="0"/>
  </g>
  <g id="e" data-name="&amp;lt;Radial Repeat&amp;gt;">
    <path d="M859,545.839l-178.576,47.24c-9.403,2.484-19.379-.982-25.2-8.758-7.896-10.548-5.744-25.509,4.804-33.404l201.672-150.961,19.593,26.175-156.13,116.871c-1.033.773-1.234,2.239-.461,3.272.568.759,1.544,1.097,2.471.863l121.961-32.269,9.867,30.972Z" fill="#fff" stroke-width="0"/>
  </g>
  <g id="f" data-name="&amp;lt;Radial Repeat&amp;gt;">
    <path d="M787.564,789.806l-130.199-131.031c-6.853-6.901-8.84-17.274-5.016-26.203,5.187-12.112,19.219-17.729,31.331-12.542l231.573,99.172-12.871,30.055-179.278-76.777c-1.186-.508-2.556.051-3.064,1.237-.373.871-.178,1.886.488,2.572l88.926,89.487-21.89,24.031Z" fill="#fff" stroke-width="0"/>
  </g>
  <g id="g" data-name="&amp;lt;Radial Repeat&amp;gt;">
    <path d="M540.563,849.924l48.377-178.271c2.55-9.385,10.54-16.292,20.185-17.445,13.082-1.564,24.963,7.78,26.527,20.862l29.9,250.134-32.464,3.881-23.148-193.648c-.153-1.281-1.322-2.188-2.603-2.035-.941.112-1.722.789-1.983,1.709l-33.035,121.756-31.756-6.941Z" fill="#fff" stroke-width="0"/>
  </g>
</svg>