<svg width="108" height="32" viewBox="0 0 108 32" fill="none" xmlns="http://www.w3.org/2000/svg">
<rect x="68.8213" y="14.5591" width="1.29412" height="17.1471" fill="#D9D9D9"/>
<rect x="84.7031" y="14.5591" width="1.29412" height="17.1471" fill="#D9D9D9"/>
<rect x="100.585" y="14.5591" width="1.29412" height="17.1471" fill="#D9D9D9"/>
<rect x="37.0576" width="1.29412" height="17.1471" fill="#D9D9D9"/>
<rect x="21.1758" width="1.29412" height="17.1471" fill="#D9D9D9"/>
<rect x="5.29395" y="14.5591" width="1.29412" height="17.1471" fill="#D9D9D9"/>
<rect x="74.1152" y="14.5591" width="1.29412" height="17.1471" fill="#D9D9D9"/>
<rect x="89.9971" y="14.5591" width="1.29412" height="17.1471" fill="#D9D9D9"/>
<rect x="105.879" y="14.5591" width="1.29412" height="17.1471" fill="#D9D9D9"/>
<rect x="42.3516" width="1.29412" height="17.1471" fill="#EA4124"/>
<rect x="10.5879" y="7.2793" width="1.29412" height="17.1471" fill="#D9D9D9"/>
<rect x="26.4697" width="1.29412" height="17.1471" fill="#D9D9D9"/>
<rect x="63.5273" y="7.2793" width="1.29412" height="17.1471" fill="#D9D9D9"/>
<rect x="79.4092" y="14.5591" width="1.29412" height="17.1471" fill="#D9D9D9"/>
<rect x="95.291" y="14.5591" width="1.29412" height="17.1471" fill="#D9D9D9"/>
<rect y="14.5591" width="1.29412" height="17.1471" fill="#D9D9D9"/>
<rect x="31.7637" width="1.29412" height="17.1471" fill="#D9D9D9"/>
<rect x="15.8818" y="7.2793" width="1.29412" height="17.1471" fill="#D9D9D9"/>
<rect x="52.9395" y="7.2793" width="1.29412" height="17.1471" fill="#D9D9D9"/>
<rect x="58.2334" y="7.2793" width="1.29412" height="17.1471" fill="#D9D9D9"/>
<rect x="47.6455" width="1.29412" height="17.1471" fill="#D9D9D9"/>
</svg>
