<svg width="11" height="10" viewBox="0 0 11 10" fill="none" xmlns="http://www.w3.org/2000/svg">
<g clip-path="url(#clip0_89_680)">
<path d="M1.34517 9.84311H9.49273C10.3345 9.84311 10.8419 9.2551 10.8419 8.51003C10.8419 8.26836 10.7734 8.01869 10.6406 7.7891L6.56877 0.668557C6.31506 0.22151 5.868 0 5.42095 0C4.96989 0 4.52688 0.22151 4.27312 0.668557L0.201373 7.7891C0.0644393 8.02269 0 8.26836 0 8.51003C0 9.2551 0.50746 9.84311 1.34517 9.84311ZM1.35323 9.14634C0.954506 9.14634 0.716887 8.84429 0.716887 8.50599C0.716887 8.38516 0.749109 8.24824 0.817573 8.11936L4.88126 1.00687C5.0021 0.79341 5.21557 0.708833 5.42095 0.708833C5.62637 0.708833 5.83579 0.79341 5.95259 1.00687L10.0203 8.1234C10.0888 8.25228 10.121 8.38516 10.121 8.50599C10.121 8.84429 9.87937 9.14634 9.48065 9.14634H1.35323Z" fill="white"/>
<path d="M5.41679 6.36767C5.63021 6.36767 5.75909 6.24279 5.76313 6.00516L5.82759 3.23832C5.83159 3.00473 5.65438 2.83154 5.41275 2.83154C5.16707 2.83154 4.9979 3.0007 5.00194 3.23429L5.06236 6.00516C5.0664 6.23879 5.19124 6.36767 5.41679 6.36767ZM5.41679 8.00685C5.69063 8.00685 5.92826 7.78934 5.92826 7.5155C5.92826 7.23757 5.69467 7.02011 5.41679 7.02011C5.13886 7.02011 4.90527 7.24161 4.90527 7.5155C4.90527 7.78534 5.14291 8.00685 5.41679 8.00685Z" fill="white"/>
</g>
<defs>
<clipPath id="clip0_89_680">
<rect width="10.9909" height="9.9277" fill="white"/>
</clipPath>
</defs>
</svg>
