<svg width="107" height="31" viewBox="0 0 107 31" fill="none" xmlns="http://www.w3.org/2000/svg">
<rect x="26.3281" width="1.26529" height="16.7651" fill="#D9D9D9"/>
<rect x="31.5938" width="1.26529" height="16.7651" fill="#D9D9D9"/>
<rect x="36.8594" width="1.26529" height="16.7651" fill="#D9D9D9"/>
<rect x="42.125" width="1.26529" height="16.7651" fill="#D9D9D9"/>
<rect x="47.3906" width="1.26529" height="16.7651" fill="#D9D9D9"/>
<rect x="52.6562" width="1.26529" height="16.7651" fill="#D9D9D9"/>
<rect x="15.7969" y="7.1167" width="1.26529" height="16.7651" fill="#D9D9D9"/>
<rect x="21.0625" y="7.1167" width="1.26529" height="16.7651" fill="#D9D9D9"/>
<rect x="57.9219" y="7.1167" width="1.26529" height="16.7651" fill="#D9D9D9"/>
<rect x="63.1875" y="7.1167" width="1.26529" height="16.7651" fill="#3C7DE5"/>
<rect x="68.4531" y="7.1167" width="1.26529" height="16.7651" fill="#D9D9D9"/>
<rect x="73.7188" y="7.1167" width="1.26529" height="16.7651" fill="#D9D9D9"/>
<rect x="78.9844" y="7.1167" width="1.26529" height="16.7651" fill="#D9D9D9"/>
<rect x="84.25" y="7.1167" width="1.26529" height="16.7651" fill="#D9D9D9"/>
<rect y="14.2354" width="1.26529" height="16.7651" fill="#D9D9D9"/>
<rect x="5.26562" y="14.2354" width="1.26529" height="16.7651" fill="#D9D9D9"/>
<rect x="10.5312" y="14.2354" width="1.26529" height="16.7651" fill="#D9D9D9"/>
<rect x="89.5156" y="14.2354" width="1.26529" height="16.7651" fill="#D9D9D9"/>
<rect x="94.7812" y="14.2354" width="1.26529" height="16.7651" fill="#D9D9D9"/>
<rect x="100.047" y="14.2354" width="1.26529" height="16.7651" fill="#D9D9D9"/>
<rect x="105.312" y="14.2354" width="1.26529" height="16.7651" fill="#D9D9D9"/>
</svg>
