<svg width="108" height="32" viewBox="0 0 108 32" fill="none" xmlns="http://www.w3.org/2000/svg">
<rect x="68.9736" y="7.34717" width="1.30612" height="17.3061" fill="#D9D9D9"/>
<rect x="84.8906" y="14.6938" width="1.30612" height="17.3061" fill="#D9D9D9"/>
<rect x="100.808" y="14.6938" width="1.30612" height="17.3061" fill="#D9D9D9"/>
<rect x="37.1396" y="7.34717" width="1.30612" height="17.3061" fill="#D9D9D9"/>
<rect x="21.2227" y="14.6938" width="1.30612" height="17.3061" fill="#D9D9D9"/>
<rect x="5.30566" y="14.6938" width="1.30612" height="17.3061" fill="#D9D9D9"/>
<rect x="74.2793" y="7.34717" width="1.30612" height="17.3061" fill="#D9D9D9"/>
<rect x="90.1963" y="14.6938" width="1.30612" height="17.3061" fill="#D9D9D9"/>
<rect x="106.113" y="14.6938" width="1.30612" height="17.3061" fill="#D9D9D9"/>
<rect x="42.4453" width="1.30612" height="17.3061" fill="#D9D9D9"/>
<rect x="10.6113" y="14.6938" width="1.30612" height="17.3061" fill="#D9D9D9"/>
<rect x="26.5283" y="7.34717" width="1.30612" height="17.3061" fill="#D9D9D9"/>
<rect x="63.668" width="1.30612" height="17.3061" fill="#D9D9D9"/>
<rect x="79.585" y="7.34717" width="1.30612" height="17.3061" fill="#FF9CC7"/>
<rect x="95.502" y="14.6938" width="1.30612" height="17.3061" fill="#D9D9D9"/>
<rect y="14.6938" width="1.30612" height="17.3061" fill="#D9D9D9"/>
<rect x="31.834" y="7.34717" width="1.30612" height="17.3061" fill="#D9D9D9"/>
<rect x="15.917" y="14.6938" width="1.30612" height="17.3061" fill="#D9D9D9"/>
<rect x="53.0566" width="1.30612" height="17.3061" fill="#D9D9D9"/>
<rect x="58.3623" width="1.30612" height="17.3061" fill="#D9D9D9"/>
<rect x="47.751" width="1.30612" height="17.3061" fill="#D9D9D9"/>
</svg>
