<svg preserveAspectRatio="none" width="100%" height="100%" overflow="visible" style="display: block;" viewBox="0 0 20 4" fill="none" xmlns="http://www.w3.org/2000/svg">
<g id="Group">
<path id="Vector" opacity="0" d="M20 0H0V3.95446H20V0Z" fill="var(--fill-0, black)"/>
<path id="Vector_2" d="M17.715 3.93773C18.8026 3.93773 19.688 3.06083 19.688 1.97315C19.688 0.877019 18.8026 0.000127814 17.715 0.000127814C16.6273 0.000127814 15.742 0.877019 15.742 1.97315C15.742 3.06083 16.6273 3.93773 17.715 3.93773Z" fill="var(--fill-0, #F5F5F5)"/>
<path id="Vector_3" d="M9.8398 3.93773C10.9359 3.93773 11.8128 3.06083 11.8128 1.97315C11.8128 0.877019 10.9359 0.000127814 9.8398 0.000127814C8.75208 0.000127814 7.8752 0.877019 7.8752 1.97315C7.8752 3.06083 8.75208 3.93773 9.8398 3.93773Z" fill="var(--fill-0, #F5F5F5)"/>
<path id="Vector_4" d="M1.97302 3.9376C3.0607 3.9376 3.94603 3.0607 3.94603 1.97302C3.94603 0.876891 3.0607 0 1.97302 0C0.876891 0 0 0.876891 0 1.97302C0 3.0607 0.876891 3.9376 1.97302 3.9376Z" fill="var(--fill-0, #F5F5F5)"/>
</g>
</svg>
