<svg preserveAspectRatio="none" width="100%" height="100%" overflow="visible" style="display: block;" viewBox="0 0 11 10" fill="none" xmlns="http://www.w3.org/2000/svg">
<g id="Group">
<path id="Vector" opacity="0" d="M10.9909 0H0V9.9277H10.9909V0Z" fill="var(--fill-0, black)"/>
<path id="Vector_2" d="M1.34517 9.84311H9.49273C10.3345 9.84311 10.8419 9.2551 10.8419 8.51003C10.8419 8.26836 10.7734 8.01869 10.6406 7.7891L6.56877 0.668557C6.31506 0.22151 5.868 0 5.42095 0C4.96989 0 4.52688 0.22151 4.27312 0.668557L0.201373 7.7891C0.0644393 8.02269 0 8.26836 0 8.51003C0 9.2551 0.50746 9.84311 1.34517 9.84311ZM1.35323 9.14634C0.954506 9.14634 0.716887 8.84429 0.716887 8.50599C0.716887 8.38516 0.749109 8.24824 0.817573 8.11936L4.88126 1.00687C5.0021 0.79341 5.21557 0.708833 5.42095 0.708833C5.62637 0.708833 5.83579 0.79341 5.95259 1.00687L10.0203 8.1234C10.0888 8.25228 10.121 8.38516 10.121 8.50599C10.121 8.84429 9.87937 9.14634 9.48065 9.14634H1.35323Z" fill="var(--fill-0, white)"/>
<path id="Vector_3" d="M5.41696 6.36743C5.63038 6.36743 5.75926 6.24256 5.7633 6.00492L5.82776 3.23808C5.83176 3.00449 5.65455 2.8313 5.41292 2.8313C5.16724 2.8313 4.99807 3.00046 5.00211 3.23405L5.06253 6.00492C5.06657 6.23856 5.19141 6.36743 5.41696 6.36743ZM5.41696 8.00661C5.6908 8.00661 5.92843 7.7891 5.92843 7.51526C5.92843 7.23733 5.69484 7.01987 5.41696 7.01987C5.13904 7.01987 4.90544 7.24138 4.90544 7.51526C4.90544 7.7851 5.14308 8.00661 5.41696 8.00661Z" fill="var(--fill-0, white)"/>
</g>
</svg>
